<svg version="1.1" id="Camada_1" xmlns="http://www.w3.org/2000/svg" xmlns:xlink="http://www.w3.org/1999/xlink" x="0px" y="0px"
	 viewBox="0 0 1194 330" xml:space="preserve">
<g>
	<path fill="#222222" d="M545.2548828,176.0239258l-0.8544922,20.9194336H432.4140625
		c1.1386719-23.4296875,1.7070313-55.8720703,1.7070313-97.3305664c0-35.6669922-0.5683594-64.9799805-1.7070313-87.9384766
		h26.4677734c-1.1386719,19.1635742-1.7089844,48.4765625-1.7089844,87.9384766
		c0,32.4443359-0.5224609,58.4355469-1.5654297,77.9785156
		C484.0673828,177.5913086,513.9492188,177.0717773,545.2548828,176.0239258z"/>
	<path fill="#222222" d="M690.6806641,175.4555664l-0.8544922,21.487793H575.1357422
		c1.328125-29.40625,1.9931641-61.8486328,1.9931641-97.3305664c0-33.3901367-0.6650391-62.703125-1.9931641-87.9384766h107.5742188
		l-1.1367188,21.2021484c-26.0888672-1.1381836-53.7421875-1.706543-82.9580078-1.706543
		c0.5683594,14.7045898,0.8525391,34.578125,0.8525391,59.6210938c25.2333984,0,47.7158203-0.5683594,67.4482422-1.7070313
		v21.2021484c-21.0595703-0.8540039-43.5419922-1.28125-67.4482422-1.28125c0,24.3813477,0.4267578,47.2426758,1.28125,68.5864258
		C632.2421875,177.5913086,662.2207031,176.878418,690.6806641,175.4555664z"/>
	<path fill="#222222" d="M859.8681641,11.6743164c0,7.8754883-11.9775391,38.7050781-35.9296875,92.4926758
		c-23.953125,53.7861328-35.9306641,84.7133789-35.9306641,92.7763672h-18.4980469
		c0-7.3037109-11.3105469-37.9946289-33.9355469-92.0649414c-22.625-54.0722656-33.9394531-85.1396484-33.9394531-93.2041016
		h27.0380859c0,7.3994141,8.6308594,33.7485352,25.8974609,79.0458984
		c17.265625,45.2993164,25.8974609,71.2182617,25.8974609,77.7631836h1.4228516
		c0-7.3994141,8.7265625-33.2246094,26.1826172-77.4790039c17.453125-44.2539063,26.1835938-70.6953125,26.1835938-79.3300781
		H859.8681641z"/>
	<path fill="#222222" d="M1018.6728516,11.6743164c0,3.5107422-5.8349609,13.7568359-17.5029297,30.7373047
		c-16.5068359,24-27.2734375,40.3178711-32.3007813,48.9492188c-11.6699219,19.8271484-17.5029297,34.9101563-17.5029297,45.25
		c0,19.5415039,0.6611328,39.652832,1.9912109,60.3325195h-27.3193359
		c1.2314453-19.6381836,1.8496094-39.8447266,1.8496094-60.6181641c0-11.3833008-5.4570313-27.1772461-16.3662109-47.3837891
		c-6.1669922-11.2880859-16.3623047-27.605957-30.5927734-48.949707
		c-10.9082031-16.5053711-16.3623047-25.9448242-16.3623047-28.3173828h29.1699219
		c0,2.4692383,8.1826172,17.5732422,24.5458984,45.3222656c16.3652344,27.7470703,24.5449219,46.0810547,24.5449219,54.996582
		H944.25c0-9.0107422,7.8017578-27.0356445,23.4082031-54.0717773
		c15.6035156-27.0356445,23.4091797-42.4506836,23.4091797-46.2470703H1018.6728516z"/>
	<path fill="#222222" d="M1191.4160156,196.9433594h-19.9208984c0-1.612793-15.5576172-24.3330078-46.6728516-68.1586914
		c-32.5371094-46.0087891-51.0820313-75.0375977-55.6357422-87.0859375h-1.4228516
		c1.7050781,22.862793,2.5595703,42.4536133,2.5595703,58.7685547c0,31.8740234,0.7128906,64.0307617,2.1357422,96.4760742
		h-23.90625c1.6132813-30.8291016,2.4179688-63.2714844,2.4179688-97.3305664
		c0-33.4853516-0.8046875-62.7983398-2.4179688-87.9384766h27.3203125c0,2.6582031,14.3222656,24.2861328,42.9726563,64.8867188
		c29.9755859,42.6884766,47.0507813,70.4848633,51.2265625,83.3862305h1.4228516
		c-1.6132813-23.1459961-2.4179688-42.7827148-2.4179688-58.9116211c0-35.097168-0.6640625-64.8862305-1.9912109-89.3613281
		h24.3300781c-1.6132813,25.1401367-2.4179688,54.453125-2.4179688,87.9384766
		C1188.9980469,133.671875,1189.8027344,166.1142578,1191.4160156,196.9433594z"/>
</g>
<g>
	<path fill="#565D67" d="M466.9736328,271.5908203c0,6.0107422-1.9189453,11.2773438-5.7597656,15.8066406
		c-3.8388672,4.5292969-9.1337891,6.7910156-15.8828125,6.7910156c-2.2001953,0-5.8710938-0.1474609-11.0136719-0.4423828
		c0.3183594-6.5605469,0.4765625-13.796875,0.4765625-21.7099609c0-7.4453125-0.1582031-13.984375-0.4765625-19.6132813h3.4912109
		c0.8466797,0,2.1367188-0.03125,3.8730469-0.0927734c1.7333984-0.0644531,2.8759766-0.0976563,3.4267578-0.0976563
		c7.4677734,0,12.9804688,1.8369141,16.5341797,5.5058594C465.1982422,261.4101563,466.9736328,266.0292969,466.9736328,271.5908203
		z M461.4521484,273.0224609c0-4.6982422-1.4960938-8.6220703-4.4912109-11.7744141
		c-2.9921875-3.1533203-7.6220703-4.7294922-13.8837891-4.7294922c-0.8886719,0-2.1054688,0.1074219-3.6494141,0.3164063
		c0.1689453,4.9287109,0.2539063,9.9990234,0.2539063,15.2011719c0,5.7128906,0.1162109,11.5107422,0.3486328,17.3925781
		c1.6933594,0.3378906,3.3212891,0.5068359,4.8867188,0.5068359c5.5869141,0,9.7382813-1.6533203,12.4580078-4.9658203
		C460.0927734,281.6572266,461.4521484,277.6748047,461.4521484,273.0224609z"/>
	<path fill="#565D67" d="M500.3291016,275.1152344c0,0.8876953-0.0429688,2.1171875-0.1279297,3.6816406l-21.8027344,0.3808594
		c0.2119141,3.0878906,1.4072266,5.6748047,3.5859375,7.7587891c2.1806641,2.0830078,5.0673828,3.1279297,8.6640625,3.1279297
		c3.2158203,0,6.2314453-0.3935547,9.0449219-1.1738281l-0.5400391,4.4736328
		c-2.0742188,0.8242188-5.0664063,1.2353516-8.9794922,1.2353516c-5.5019531,0-9.6962891-1.4990234-12.5849609-4.5048828
		c-2.8867188-3.0048828-4.3310547-6.6640625-4.3310547-10.9814453c0-4.609375,1.3164063-8.5859375,3.9511719-11.9169922
		c2.6337891-3.3300781,6.171875-4.9960938,10.6152344-4.9960938c4.0839844,0,7.1884766,1.2050781,9.3154297,3.6171875
		C499.265625,268.2294922,500.3291016,271.3261719,500.3291016,275.1152344z M495.0283203,275.1796875
		c0-5.9453125-2.4853516-8.9169922-7.4580078-8.9169922c-5.0771484,0-8.0712891,3.0878906-8.9814453,9.2646484
		L495.0283203,275.1796875z"/>
	<path fill="#565D67" d="M527.8125,285.1416016c0,6.1796875-3.9462891,9.2675781-11.8378906,9.2675781
		c-3.4912109,0-6.7480469-0.3466797-9.7753906-1.0449219l0.9853516-4.6640625
		c2.75,1.0566406,5.7324219,1.5849609,8.9492188,1.5849609c4.6123047,0,6.9189453-1.3115234,6.9189453-3.9355469
		c0-1.2695313-0.5136719-2.2802734-1.5400391-3.0302734c-1.0263672-0.7529297-2.7236328-1.5947266-5.0927734-2.5224609
		c-3.0058594-1.1865234-5.1835938-2.3291016-6.5371094-3.4296875c-1.9902344-1.6279297-2.984375-3.5947266-2.984375-5.9023438
		c0-2.4121094,0.9101563-4.4775391,2.7285156-6.2041016c1.8193359-1.7236328,4.5908203-2.5869141,8.3154297-2.5869141
		c3.6376953,0,6.5585938,0.3066406,8.7587891,0.921875l-0.9833984,4.5693359
		c-2.2841797-0.9101563-4.9296875-1.3642578-7.9335938-1.3642578c-4.0625,0-6.09375,1.1738281-6.09375,3.5244141
		c0,1.1826172,0.4550781,2.1386719,1.3642578,2.8691406c0.9101563,0.7314453,2.6875,1.6132813,5.3320313,2.6494141
		c2.8554688,1.1240234,4.9716797,2.2246094,6.3476563,3.2998047C526.7861328,280.8154297,527.8125,282.8183594,527.8125,285.1416016
		z"/>
	<path fill="#565D67" d="M540.6328125,293.7460938h-5.7421875c0.2949219-4.234375,0.4433594-9.0683594,0.4433594-14.5039063
		c0-6.1152344-0.3701172-11.2460938-1.1103516-15.3945313l6.3466797-0.8544922
		c-0.2539063,4.421875-0.3808594,9.8388672-0.3808594,16.2490234
		C540.1894531,284.3183594,540.3369141,289.1552734,540.6328125,293.7460938z M541.9667969,254.0761719
		c0,1.0751953-0.3486328,2.015625-1.0478516,2.8085938c-0.6972656,0.7919922-1.6826172,1.1884766-2.9511719,1.1884766
		c-1.0791016,0-1.9189453-0.34375-2.5224609-1.0322266c-0.6025391-0.6855469-0.9052734-1.5175781-0.9052734-2.4921875
		c0-1.0566406,0.359375-1.9785156,1.0800781-2.7587891c0.71875-0.7841797,1.7128906-1.1738281,2.9824219-1.1738281
		c1.0371094,0,1.8574219,0.34375,2.4589844,1.0322266C541.6660156,252.3339844,541.9667969,253.1416016,541.9667969,254.0761719z"/>
	<path fill="#565D67" d="M578.8740234,259.5947266l-0.5068359,4.3818359c-3.9365234,0-6.1044922,0.6328125-6.5068359,1.9052734
		v0.3164063c1.3535156,1.6494141,2.03125,3.5332031,2.03125,5.6474609c0,3.3037109-1.0849609,6.0253906-3.2529297,8.1708984
		c-2.1689453,2.1503906-5.5166016,3.2226563-10.0449219,3.2226563c-2.0097656,0-3.6074219-0.2119141-4.7919922-0.6357422
		c-1.0371094,0.7441406-1.5546875,1.6621094-1.5546875,2.7626953c0,1.3544922,0.6132813,2.2519531,1.8408203,2.6982422
		c1.5654297,0.5927734,4.8349609,0.8876953,9.8066406,0.8876953c8.0400391,0,12.0595703,2.6669922,12.0595703,7.9951172
		c0,3.8105469-1.5654297,6.9628906-4.6972656,9.4580078c-3.1308594,2.4951172-7.1826172,3.7460938-12.1542969,3.7460938
		c-5.0996094,0-8.7324219-0.9248047-10.9003906-2.7744141c-2.1699219-1.8535156-3.2539063-4.0810547-3.2539063-6.6806641
		c0-2.3720703,0.5341797-4.2773438,1.6025391-5.7158203c1.0683594-1.4375,2.3964844-2.3261719,3.9833984-2.6669922V292.03125
		c-1.671875-0.8056641-2.5078125-2.3476563-2.5078125-4.6337891c0-2.0742188,1.0576172-3.8935547,3.1748047-5.4580078v-0.2548828
		c-1.1230469-0.5498047-2.1914063-1.4804688-3.2070313-2.7929688c-1.015625-1.3115234-1.5224609-2.9404297-1.5224609-4.8857422
		c0-3.3671875,1.1113281-6.1054688,3.3330078-8.2226563c2.2216797-2.1142578,5.4375-3.1708984,9.6464844-3.1708984
		c3.4482422,0,6.15625,0.6240234,8.125,1.8710938h0.3486328c0.6777344-3.5732422,2.4550781-5.3623047,5.3310547-5.3623047
		C576.8212891,259.1210938,578.0273438,259.28125,578.8740234,259.5947266z M573.1943359,299.1074219
		c0-1.9882813-0.7255859-3.3886719-2.1738281-4.2060547c-1.4511719-0.8115234-4.1728516-1.2207031-8.1728516-1.2207031
		c-2.7080078,0-5.1835938-0.1259766-7.4267578-0.3808594c-2.5810547,1.2480469-3.8720703,3.0761719-3.8720703,5.4912109
		c0,5.1621094,3.3867188,7.7431641,10.15625,7.7431641c3.5332031,0,6.3310547-0.6875,8.3945313-2.0644531
		C572.1621094,303.0927734,573.1943359,301.3076172,573.1943359,299.1074219z M568.7832031,273.1455078
		c0-2.3232422-0.7363281-4.1083984-2.2060547-5.3466797c-1.4707031-1.2353516-3.3369141-1.8554688-5.6025391-1.8554688
		c-2.1367188,0-3.9238281,0.5986328-5.3632813,1.7939453c-1.4375,1.1953125-2.1572266,2.8945313-2.1572266,5.0947266
		c0,2.3046875,0.734375,4.0625,2.2050781,5.2666016c1.4707031,1.2050781,3.3583984,1.8076172,5.6650391,1.8076172
		c2.1152344,0,3.8886719-0.5839844,5.3154297-1.7578125C568.0683594,276.9716797,568.7832031,275.3056641,568.7832031,273.1455078z"
		/>
	<path fill="#565D67" d="M610.9912109,293.7460938h-5.7753906c0.4648438-5.5683594,0.6972656-11.640625,0.6972656-18.21875
		c0-3.2578125-0.6611328-5.4853516-1.9833984-6.6806641c-1.3232422-1.1953125-3.2109375-1.7910156-5.6650391-1.7910156
		c-3.0029297,0-5.7753906,1.0878906-8.3144531,3.2695313c0,7.2148438,0.0429688,15.0195313,0.1269531,23.4208984h-5.7753906
		c0.3603516-7.1972656,0.5400391-12.3994141,0.5400391-15.6162109c0-4.9501953-0.4658203-9.7529297-1.3964844-14.4082031
		l5.5839844-0.7929688l0.6044922,3.8720703h0.2529297c3.1318359-2.8369141,6.4853516-4.2529297,10.0605469-4.2529297
		c3.5117188,0,6.2304688,0.7773438,8.15625,2.3320313c1.9238281,1.5546875,2.8876953,4.3203125,2.8876953,8.2998047
		c0,0.4023438-0.0214844,1.1953125-0.0634766,2.3808594c-0.0429688,1.1835938-0.0625,1.9794922-0.0625,2.3789063
		C610.8652344,281.4726563,610.90625,286.7392578,610.9912109,293.7460938z"/>
	<path fill="#565D67" d="M665.3242188,292.8847656c-3.4726563,1.1435547-6.9755859,1.7148438-10.5029297,1.7148438
		c-7.4287109,0-13.0302734-1.9814453-16.8066406-5.9482422c-3.7763672-3.9677734-5.6650391-8.8720703-5.6650391-14.7099609
		c0-5.9023438,2.0517578-11.0585938,6.15625-15.4716797c4.1054688-4.4121094,9.7958984-6.6181641,17.0771484-6.6181641
		c2.6181641,0,5.1074219,0.3066406,7.4550781,0.921875l-0.7929688,5.2666016
		c-3.4912109-0.8457031-6.3056641-1.2666016-8.4443359-1.2666016c-5.1191406,0-9.0371094,1.5488281-11.7558594,4.6464844
		c-2.71875,3.1005859-4.078125,6.9443359-4.078125,11.5351563c0,4.6152344,1.5595703,8.65625,4.6816406,12.125
		c3.1201172,3.4726563,7.5263672,5.2050781,13.2177734,5.2050781c1.0380859,0,2.5927734-0.1591797,4.6640625-0.4755859
		c-0.3564453-2.2001953-0.5410156-4.7597656-0.5410156-7.6787109c0-2.4550781-0.1474609-4.8554688-0.4423828-7.2060547h5.7773438
		c-0.171875,2.7929688-0.2519531,5.7431641-0.2519531,8.8525391
		C665.0722656,285.1113281,665.1523438,288.1464844,665.3242188,292.8847656z"/>
	<path fill="#565D67" d="M692.8994141,263.5957031l-1.4257813,5.0449219
		c-1.6503906-0.6572266-3.1865234-0.9833984-4.6035156-0.9833984c-3.9755859,0-6.5576172,1.8935547-7.7431641,5.6787109
		c0,9.734375,0.0644531,16.5380859,0.1904297,20.4101563h-5.6171875c0.3378906-6.7080078,0.5068359-11.9140625,0.5068359-15.6162109
		c0-5.0146484-0.4970703-9.8144531-1.4902344-14.4082031l5.5527344-0.7929688
		c0.4023438,2.3261719,0.6025391,3.8808594,0.6025391,4.6640625h0.2548828
		c2.2861328-3.3642578,4.9501953-5.0449219,7.9980469-5.0449219
		C688.7324219,262.5478516,690.6591797,262.8945313,692.8994141,263.5957031z"/>
	<path fill="#565D67" d="M720.6064453,293.7460938l-4.984375,0.1904297
		c-0.2519531-1.0390625-0.3808594-2.0224609-0.3808594-2.953125h-0.3164063
		c-2.6025391,2.3691406-6.1455078,3.5546875-10.6318359,3.5546875c-2.4335938,0-4.5263672-0.7128906-6.2841797-2.1445313
		c-1.7568359-1.4257813-2.6328125-3.4628906-2.6328125-6.1083984c0-3.2578125,1.3730469-5.875,4.1269531-7.8544922
		c2.7470703-1.9785156,7.8564453-3.0175781,15.3271484-3.125c0.0644531-0.5068359,0.0947266-1.0908203,0.0947266-1.7451172
		c0-2.6025391-0.6943359-4.3359375-2.0800781-5.2050781c-1.3857422-0.8671875-3.484375-1.2998047-6.2998047-1.2998047
		c-3.3212891,0-6.5908203,0.4111328-9.8046875,1.2353516l0.5410156-4.3789063
		c3.1708984-0.9101563,6.8212891-1.3642578,10.9482422-1.3642578c3.7636719,0,6.6738281,0.7773438,8.7265625,2.3320313
		s3.0791016,4.203125,3.0791016,7.9521484c0,0.9921875-0.0498047,2.796875-0.1445313,5.4082031
		c-0.0957031,2.6123047-0.1416016,4.3544922-0.1416016,5.2207031
		C719.7490234,287.3115234,720.0351563,290.7402344,720.6064453,293.7460938z M714.9892578,287.5878906
		c-0.1074219-3.2138672-0.1591797-6.1025391-0.1591797-8.6650391c-3.9794922,0-7.0029297,0.2978516-9.0771484,0.890625
		c-3.4697266,1.0576172-5.2060547,3.0791016-5.2060547,6.0595703c0,2.8759766,2.03125,4.3173828,6.09375,4.3173828
		C710.1308594,290.1904297,712.9150391,289.3203125,714.9892578,287.5878906z M718.6064453,248.9970703
		c0,0.2548828-1.4599609,1.9443359-4.3789063,5.0791016c-2.9189453,3.1279297-4.3818359,4.8642578-4.3818359,5.2050781h-3.8076172
		c0-0.3408203,0.953125-2.0800781,2.8583984-5.2236328c1.9013672-3.140625,2.8544922-4.8271484,2.8544922-5.0605469H718.6064453z"/>
	<path fill="#565D67" d="M756.5,250.4560547l-1.9667969,4.7626953c-4.1269531-2.0957031-7.5654297-3.1435547-10.3154297-3.1435547
		c-1.671875,0-2.9990234,0.2119141-3.9824219,0.6367188c-0.9833984,0.4208984-1.7363281,1.109375-2.2519531,2.0585938
		c-0.5195313,0.9521484-0.8544922,2.203125-1.0019531,3.7490234c-0.1474609,1.5419922-0.2216797,3.4472656-0.2216797,5.7089844
		c8.484375,0,14.8203125-0.4121094,19.0087891-1.2353516c-0.2519531,4.4003906-0.3808594,9.8144531-0.3808594,16.2490234
		c0,5.0761719,0.1503906,9.9130859,0.4453125,14.5039063h-5.7431641c0.2949219-4.2529297,0.4423828-9.0898438,0.4423828-14.5039063
		c0-2.1171875-0.0458984-4.0996094-0.1416016-5.9521484c-0.0947266-1.8525391-0.2265625-3.6015625-0.3964844-5.2509766
		c-2.2646484,0.1474609-4.4921875,0.2519531-6.6796875,0.3164063c-2.1914063,0.0644531-4.3759766,0.0947266-6.5546875,0.0947266
		c0,9.6269531,0.1259766,18.0556641,0.3808594,25.2958984h-5.6806641
		c0.2978516-11.9355469,0.4453125-20.3671875,0.4453125-25.2958984c-1.2910156,0-3.5458984,0.0615234-6.7607422,0.1904297
		l0.2216797-4.6640625c1.4599609,0.0859375,2.734375,0.1474609,3.8251953,0.1904297
		c1.0878906,0.0429688,1.9941406,0.0615234,2.7138672,0.0615234c0-2.8544922,0.1689453-5.2978516,0.5068359-7.3320313
		c0.3378906-2.0273438,0.9833984-3.6875,1.9355469-4.9804688c0.953125-1.2880859,2.2675781-2.2373047,3.9521484-2.8398438
		c1.6806641-0.6054688,3.6533203-0.90625,5.9179688-0.90625C748.765625,248.1699219,752.8613281,248.9316406,756.5,250.4560547z"/>
	<path fill="#565D67" d="M786.9355469,288.890625l-0.3193359,4.2529297
		c-1.7119141,0.9707031-4.0068359,1.4560547-6.8857422,1.4560547c-5.4794922,0-9.6679688-1.5117188-12.5683594-4.5351563
		c-2.8974609-3.0263672-4.3476563-6.6767578-4.3476563-10.9511719c0-4.5263672,1.5234375-8.4199219,4.5722656-11.6767578
		c3.0449219-3.2568359,7.0761719-4.8886719,12.0908203-4.8886719c2.5166016,0,4.5693359,0.2548828,6.1552734,0.7617188
		l-0.8574219,4.9814453c-2.2216797-0.8242188-4.4736328-1.2353516-6.7568359-1.2353516
		c-3.0048828,0-5.3955078,1.0439453-7.1748047,3.1396484c-1.7763672,2.0957031-2.6640625,4.7207031-2.6640625,7.8730469
		c0,3.4257813,1.0566406,6.2802734,3.1738281,8.5664063c2.1142578,2.2861328,5.1103516,3.4296875,8.9814453,3.4296875
		C781.9208984,290.0644531,784.1210938,289.6708984,786.9355469,288.890625z"/>
	<path fill="#565D67" d="M822.1923828,277.7490234c0,5.4169922-1.5546875,9.6416016-4.6640625,12.6777344
		c-3.1123047,3.0361328-6.7724609,4.5537109-10.9824219,4.5537109c-3.9355469,0-7.3164063-1.3427734-10.1396484-4.03125
		c-2.8242188-2.6855469-4.2373047-6.4707031-4.2373047-11.3603516c0-5.4570313,1.5605469-9.71875,4.6826172-12.7880859
		c3.1191406-3.0673828,6.7851563-4.6005859,10.9970703-4.6005859c3.9335938,0,7.3076172,1.3583984,10.1220703,4.0742188
		C820.7851563,268.9970703,822.1923828,272.8203125,822.1923828,277.7490234z M816.7021484,278.8613281
		c0-3.3007813-0.8300781-6.2382813-2.4921875-8.8066406c-1.6591797-2.5722656-4.0253906-3.8564453-7.0917969-3.8564453
		c-3.0488281,0-5.3896484,1.2167969-7.03125,3.6474609c-1.6376953,2.4335938-2.4580078,5.2607422-2.4580078,8.4746094
		c0,3.3212891,0.8300781,6.2626953,2.4921875,8.8251953c1.6591797,2.5566406,4.0341797,3.8378906,7.1230469,3.8378906
		c3.0478516,0,5.3828125-1.2197266,7.0146484-3.6660156C815.8876953,284.8740234,816.7021484,282.0566406,816.7021484,278.8613281z"
		/>
	<path fill="#565D67" d="M850.3730469,310.1513672h-5.5214844c0.2734375-7.4267578,0.4121094-17.8779297,0.4121094-31.3544922
		c0-13.2441406-0.1386719-24.6591797-0.4121094-34.2431641h5.5214844c-0.2519531,8.9941406-0.3808594,20.40625-0.3808594,34.2431641
		C849.9921875,292.6328125,850.1210938,303.0869141,850.3730469,310.1513672z"/>
	<path fill="#565D67" d="M927.1435547,252.4228516c0,1.5458984-2.2861328,8.4619141-6.8554688,20.7568359
		c-4.5693359,12.2939453-6.8544922,19.1464844-6.8544922,20.5664063h-4.1269531c0-1.8623047-1.6591797-7.2587891-4.9814453-16.1875
		c-3.6191406-9.6669922-5.6689453-15.8994141-6.1572266-18.6923828h-0.4121094
		c-0.4238281,2.9619141-2.2431641,9.3076172-5.4570313,19.0419922c-3.0058594,9.1201172-4.5078125,14.3994141-4.5078125,15.8378906
		h-4.1269531c0-2.1611328-2.2373047-9.390625-6.7109375-21.6943359
		c-4.4746094-12.3037109-6.7109375-18.8427734-6.7109375-19.6289063h6.0283203
		c0,0.8691406,1.6015625,6.3486328,4.8095703,16.4394531c3.2041016,10.0908203,4.8056641,16.2705078,4.8056641,18.5351563h0.3505859
		c0-2.390625,1.6279297-8.5302734,4.8847656-18.4248047c3.2607422-9.8876953,4.8896484-15.4072266,4.8896484-16.5498047H901.5625
		c0,1.3769531,1.6933594,7.2421875,5.0800781,17.6005859c3.3828125,10.3554688,5.0761719,16.1445313,5.0761719,17.3740234h0.3496094
		c0-2.0742188,1.5400391-7.9404297,4.6191406-17.5976563c3.0751953-9.6582031,4.6152344-15.4501953,4.6152344-17.3769531
		H927.1435547z"/>
	<path fill="#565D67" d="M955.8310547,275.1152344c0,0.8876953-0.0429688,2.1171875-0.1259766,3.6816406l-21.8007813,0.3808594
		c0.2089844,3.0878906,1.4042969,5.6748047,3.5859375,7.7587891c2.1787109,2.0830078,5.0664063,3.1279297,8.6621094,3.1279297
		c3.2167969,0,6.2314453-0.3935547,9.0458984-1.1738281l-0.5410156,4.4736328
		c-2.0732422,0.8242188-5.0664063,1.2353516-8.9814453,1.2353516c-5.5,0-9.6943359-1.4990234-12.5830078-4.5048828
		c-2.8886719-3.0048828-4.3330078-6.6640625-4.3330078-10.9814453c0-4.609375,1.3183594-8.5859375,3.9521484-11.9169922
		c2.6367188-3.3300781,6.1728516-4.9960938,10.6162109-4.9960938c4.0839844,0,7.1875,1.2050781,9.3134766,3.6171875
		C954.7685547,268.2294922,955.8310547,271.3261719,955.8310547,275.1152344z M950.53125,275.1796875
		c0-5.9453125-2.4863281-8.9169922-7.4580078-8.9169922c-5.0761719,0-8.0693359,3.0878906-8.9785156,9.2646484
		L950.53125,275.1796875z"/>
	<path fill="#565D67" d="M991.9492188,277.4326172c0,4.6337891-1.3242188,8.6523438-3.9667969,12.0605469
		c-2.6464844,3.4042969-6.2626953,5.1064453-10.8535156,5.1064453c-3.8935547,0-6.5390625-0.6972656-7.9335938-2.0957031h-0.2558594
		l-0.7919922,1.2421875h-4.6650391c0.2734375-7.3017578,0.4121094-15.1923828,0.4121094-23.6767578
		c0-7.6601563-0.3505859-14.6503906-1.0478516-20.9775391l6.2841797-0.3193359
		c-0.2128906,3.640625-0.3164063,9.4091797-0.3164063,17.2998047h0.2519531
		c2.0732422-2.390625,5.3642578-3.5888672,9.8691406-3.5888672c3.9150391,0,7.0615234,1.4619141,9.4433594,4.3818359
		C990.7568359,269.7841797,991.9492188,273.3056641,991.9492188,277.4326172z M986.2978516,278.1943359
		c0-3.1962891-0.8359375-5.890625-2.5068359-8.09375c-1.6689453-2.2001953-3.9765625-3.2998047-6.9169922-3.2998047
		c-3.8076172,0-6.5390625,1.1513672-8.1894531,3.4599609c0,7.53125,0.1689453,13.6337891,0.5107422,18.3105469
		c1.7109375,1.4375,3.9453125,2.1572266,6.6953125,2.1572266c3.46875,0,6.0722656-1.2167969,7.8076172-3.6503906
		C985.4316406,284.6474609,986.2978516,281.6845703,986.2978516,278.1943359z"/>
	<path fill="#565D67" d="M1047.7998047,271.5908203c0,6.0107422-1.9199219,11.2773438-5.7587891,15.8066406
		c-3.8408203,4.5292969-9.1347656,6.7910156-15.8857422,6.7910156c-2.2001953,0-5.8691406-0.1474609-11.0097656-0.4423828
		c0.3164063-6.5605469,0.4765625-13.796875,0.4765625-21.7099609c0-7.4453125-0.1601563-13.984375-0.4765625-19.6132813h3.4902344
		c0.8457031,0,2.1357422-0.03125,3.8720703-0.0927734c1.7333984-0.0644531,2.8759766-0.0976563,3.4257813-0.0976563
		c7.4707031,0,12.9794922,1.8369141,16.5351563,5.5058594
		C1046.0234375,261.4101563,1047.7998047,266.0292969,1047.7998047,271.5908203z M1042.2783203,273.0224609
		c0-4.6982422-1.4970703-8.6220703-4.4892578-11.7744141c-2.9960938-3.1533203-7.6240234-4.7294922-13.8857422-4.7294922
		c-0.8886719,0-2.1054688,0.1074219-3.6513672,0.3164063c0.1728516,4.9287109,0.2558594,9.9990234,0.2558594,15.2011719
		c0,5.7128906,0.1162109,11.5107422,0.3496094,17.3925781c1.6904297,0.3378906,3.3222656,0.5068359,4.8857422,0.5068359
		c5.5869141,0,9.7382813-1.6533203,12.4570313-4.9658203
		C1040.9199219,281.6572266,1042.2783203,277.6748047,1042.2783203,273.0224609z"/>
	<path fill="#565D67" d="M1081.1552734,275.1152344c0,0.8876953-0.0429688,2.1171875-0.1259766,3.6816406l-21.8017578,0.3808594
		c0.2089844,3.0878906,1.4042969,5.6748047,3.5859375,7.7587891c2.1787109,2.0830078,5.0673828,3.1279297,8.6621094,3.1279297
		c3.2177734,0,6.2314453-0.3935547,9.046875-1.1738281l-0.5410156,4.4736328
		c-2.0742188,0.8242188-5.0673828,1.2353516-8.9814453,1.2353516c-5.5009766,0-9.6953125-1.4990234-12.5839844-4.5048828
		c-2.8876953-3.0048828-4.3320313-6.6640625-4.3320313-10.9814453c0-4.609375,1.3183594-8.5859375,3.9511719-11.9169922
		c2.6367188-3.3300781,6.1738281-4.9960938,10.6171875-4.9960938c4.0830078,0,7.1865234,1.2050781,9.3134766,3.6171875
		C1080.0917969,268.2294922,1081.1552734,271.3261719,1081.1552734,275.1152344z M1075.8544922,275.1796875
		c0-5.9453125-2.4853516-8.9169922-7.4580078-8.9169922c-5.0761719,0-8.0683594,3.0878906-8.9785156,9.2646484
		L1075.8544922,275.1796875z"/>
	<path fill="#565D67" d="M1108.640625,285.1416016c0,6.1796875-3.9482422,9.2675781-11.8388672,9.2675781
		c-3.4912109,0-6.7480469-0.3466797-9.7744141-1.0449219l0.9833984-4.6640625
		c2.75,1.0566406,5.7333984,1.5849609,8.9511719,1.5849609c4.6123047,0,6.9160156-1.3115234,6.9160156-3.9355469
		c0-1.2695313-0.5126953-2.2802734-1.5390625-3.0302734c-1.0263672-0.7529297-2.7226563-1.5947266-5.0917969-2.5224609
		c-3.0048828-1.1865234-5.1835938-2.3291016-6.5390625-3.4296875c-1.9873047-1.6279297-2.9833984-3.5947266-2.9833984-5.9023438
		c0-2.4121094,0.9101563-4.4775391,2.7314453-6.2041016c1.8193359-1.7236328,4.5908203-2.5869141,8.3154297-2.5869141
		c3.6376953,0,6.5576172,0.3066406,8.7578125,0.921875l-0.9833984,4.5693359
		c-2.2861328-0.9101563-4.9287109-1.3642578-7.9345703-1.3642578c-4.0625,0-6.0927734,1.1738281-6.0927734,3.5244141
		c0,1.1826172,0.4541016,2.1386719,1.3642578,2.8691406c0.9091797,0.7314453,2.6855469,1.6132813,5.3310547,2.6494141
		c2.8574219,1.1240234,4.9716797,2.2246094,6.3486328,3.2998047
		C1107.6152344,280.8154297,1108.640625,282.8183594,1108.640625,285.1416016z"/>
	<path fill="#565D67" d="M1121.4609375,293.7460938h-5.7460938c0.2978516-4.234375,0.4453125-9.0683594,0.4453125-14.5039063
		c0-6.1152344-0.3720703-11.2460938-1.1123047-15.3945313l6.3486328-0.8544922
		c-0.2548828,4.421875-0.3808594,9.8388672-0.3808594,16.2490234
		C1121.015625,284.3183594,1121.1630859,289.1552734,1121.4609375,293.7460938z M1122.7910156,254.0761719
		c0,1.0751953-0.3466797,2.015625-1.0449219,2.8085938c-0.7001953,0.7919922-1.6835938,1.1884766-2.9521484,1.1884766
		c-1.0791016,0-1.9208984-0.34375-2.5234375-1.0322266c-0.6015625-0.6855469-0.9033203-1.5175781-0.9033203-2.4921875
		c0-1.0566406,0.359375-1.9785156,1.0791016-2.7587891c0.71875-0.7841797,1.7138672-1.1738281,2.9833984-1.1738281
		c1.0351563,0,1.8554688,0.34375,2.4580078,1.0322266C1122.4902344,252.3339844,1122.7910156,253.1416016,1122.7910156,254.0761719z
		"/>
	<path fill="#565D67" d="M1159.7050781,259.5947266l-0.5107422,4.3818359c-3.9326172,0-6.1025391,0.6328125-6.5048828,1.9052734
		v0.3164063c1.3554688,1.6494141,2.03125,3.5332031,2.03125,5.6474609c0,3.3037109-1.0849609,6.0253906-3.2509766,8.1708984
		c-2.1689453,2.1503906-5.5185547,3.2226563-10.0449219,3.2226563c-2.0126953,0-3.6074219-0.2119141-4.7939453-0.6357422
		c-1.0351563,0.7441406-1.5546875,1.6621094-1.5546875,2.7626953c0,1.3544922,0.6152344,2.2519531,1.8408203,2.6982422
		c1.5673828,0.5927734,4.8330078,0.8876953,9.8056641,0.8876953c8.0410156,0,12.0605469,2.6669922,12.0605469,7.9951172
		c0,3.8105469-1.5673828,6.9628906-4.6953125,9.4580078c-3.1347656,2.4951172-7.1845703,3.7460938-12.15625,3.7460938
		c-5.0976563,0-8.7324219-0.9248047-10.9023438-2.7744141c-2.1689453-1.8535156-3.2509766-4.0810547-3.2509766-6.6806641
		c0-2.3720703,0.5322266-4.2773438,1.6005859-5.7158203c1.0703125-1.4375,2.3974609-2.3261719,3.9824219-2.6669922V292.03125
		c-1.6708984-0.8056641-2.5068359-2.3476563-2.5068359-4.6337891c0-2.0742188,1.0595703-3.8935547,3.1738281-5.4580078v-0.2548828
		c-1.1210938-0.5498047-2.1875-1.4804688-3.2050781-2.7929688c-1.0136719-1.3115234-1.5234375-2.9404297-1.5234375-4.8857422
		c0-3.3671875,1.1123047-6.1054688,3.3339844-8.2226563c2.2216797-2.1142578,5.4355469-3.1708984,9.6484375-3.1708984
		c3.4472656,0,6.1542969,0.6240234,8.1240234,1.8710938h0.3476563c0.6757813-3.5732422,2.4550781-5.3623047,5.3310547-5.3623047
		C1157.6523438,259.1210938,1158.8564453,259.28125,1159.7050781,259.5947266z M1154.0234375,299.1074219
		c0-1.9882813-0.7255859-3.3886719-2.1757813-4.2060547c-1.4472656-0.8115234-4.1728516-1.2207031-8.1708984-1.2207031
		c-2.7070313,0-5.1835938-0.1259766-7.4267578-0.3808594c-2.5810547,1.2480469-3.8710938,3.0761719-3.8710938,5.4912109
		c0,5.1621094,3.3857422,7.7431641,10.1552734,7.7431641c3.5332031,0,6.3330078-0.6875,8.3945313-2.0644531
		S1154.0234375,301.3076172,1154.0234375,299.1074219z M1149.6103516,273.1455078
		c0-2.3232422-0.734375-4.1083984-2.203125-5.3466797c-1.4716797-1.2353516-3.3398438-1.8554688-5.6015625-1.8554688
		c-2.1386719,0-3.9267578,0.5986328-5.3652344,1.7939453c-1.4375,1.1953125-2.1572266,2.8945313-2.1572266,5.0947266
		c0,2.3046875,0.734375,4.0625,2.2070313,5.2666016c1.46875,1.2050781,3.3583984,1.8076172,5.6630859,1.8076172
		c2.1171875,0,3.8867188-0.5839844,5.3154297-1.7578125
		C1148.8974609,276.9716797,1149.6103516,275.3056641,1149.6103516,273.1455078z"/>
	<path fill="#565D67" d="M1191.8183594,293.7460938h-5.7763672c0.4667969-5.5683594,0.7001953-11.640625,0.7001953-18.21875
		c0-3.2578125-0.6640625-5.4853516-1.9853516-6.6806641s-3.2109375-1.7910156-5.6630859-1.7910156
		c-3.0048828,0-5.7763672,1.0878906-8.3144531,3.2695313c0,7.2148438,0.0400391,15.0195313,0.1259766,23.4208984h-5.7773438
		c0.359375-7.1972656,0.5410156-12.3994141,0.5410156-15.6162109c0-4.9501953-0.4667969-9.7529297-1.3984375-14.4082031
		l5.5869141-0.7929688l0.6015625,3.8720703h0.2558594c3.1308594-2.8369141,6.4833984-4.2529297,10.0605469-4.2529297
		c3.5117188,0,6.2314453,0.7773438,8.1542969,2.3320313c1.9267578,1.5546875,2.8886719,4.3203125,2.8886719,8.2998047
		c0,0.4023438-0.0214844,1.1953125-0.0644531,2.3808594c-0.0400391,1.1835938-0.0615234,1.9794922-0.0615234,2.3789063
		C1191.6923828,281.4726563,1191.7353516,286.7392578,1191.8183594,293.7460938z"/>
</g>
<path fill-rule="evenodd" clip-rule="evenodd" fill="#447AB4" d="M270.1064453,272.0488281
	c-5.5214844,8.7324219-12.578125,15.2197266-21.9487305,19.0976563c-16.8588867,6.984375-29.4418945,1.4804688-43.8500977-4.4375
	c-0.1723633,1.8808594-2.1386719,11.3261719-2.6933594,13.1914063
	c-8.1494141,27.4306641-39.3442383,36.7900391-53.8847656,21.6289063
	c-13.2080078-13.7685547-5.862793-36.5654297,12.4404297-44.1494141c2.4335938-1.0078125,10.75-5.1289063,23.2270508-4.2714844
	c0.0014648-16.3808594,0.0800781-15.1669922-2.387207-40.3388672c-1.0913086-11.1513672-3.2636719-33.7578125-2.9624023-44.2421875
	c0.6113281-21.2021484,16.1704102,13.6796875,20.8901367,30.2763672c6.5361328,22.96875,6.6621094,40.1640625,6.2949219,59.2402344
	c13.2666016,4.0898438,25.0385742,9.2978516,39.1088867,3.46875c11.1420898-4.6123047,17.746582-13.1914063,23.4804688-23.3564453
	c4.3173828-7.6572266,9.0786133-19.3212891,11.4707031-28.0478516c0.4536133-1.6533203,0.8759766-3.5830078,3.1557617-2.8613281
	c2.0327148,0.6455078,1.4628906,3.4628906,1.2739258,5.1689453
	C281.9506836,248.2402344,277.5488281,258.5556641,270.1064453,272.0488281L270.1064453,272.0488281z M182.378418,284.0566406
	l0.6098633-4.3964844c-14.9272461-2.6494141-34.7255859,7.9892578-31.6572266,21.2265625
	c2.7070313,11.9775391,13.2836914,8.4287109,20.324707,2.96875
	C177.7475586,299.1289063,181.0786133,291.6894531,182.378418,284.0566406z"/>
<path fill-rule="evenodd" clip-rule="evenodd" fill="#27AE60" d="M306.5390625,95.1191406
	c6.5986328,7.9506836,10.5869141,16.6665039,11.3828125,26.7763672c1.4306641,18.1923828-7.6943359,28.4584961-17.7744141,40.331543
	c1.7363281,0.7470703,10.1123047,5.5341797,11.7167969,6.640625c23.5664063,16.2241211,22.828125,48.7836914,3.9189453,57.9282227
	c-17.1767578,8.3085938-36.590332-5.7216797-38.1455078-25.4736328c-0.2055664-2.6269531-1.5546875-11.8085938,3.1162109-23.4116211
	c-15.5791016-5.0610352-14.3974609-4.7597656-39.1030273-10.1923828
	c-10.9438477-2.4091797-33.1123047-7.3286133-42.9912109-10.855957
	c-19.9760742-7.1323242,18.0078125-11.1513672,35.2480469-10.512207c23.8662109,0.8833008,40.2578125,6.078125,58.284668,12.3217773
	c7.9907227-11.3554688,16.5820313-20.940918,15.3867188-36.1235352
	c-0.9462891-12.0224609-7.0610352-20.9550781-14.9599609-29.5512695
	c-5.9458008-6.4697266-15.5683594-14.6015625-23.1289063-19.5751953c-1.4316406-0.9414063-3.1337891-1.9404297-1.7451172-3.8852539
	c1.2412109-1.7329102,3.7441406-0.3212891,5.3081055,0.387207
	C287.5566406,76.4980469,296.0068359,83.8710938,306.5390625,95.1191406L306.5390625,95.1191406z M290.8496094,182.2646484
	l-3.9902344-1.9384766c-7.1333008,13.3754883-3.1328125,35.4931641,10.4013672,36.6669922
	c12.2285156,1.125,12.1240234-10.0292969,9.1064453-18.4150391
	C303.7568359,191.3266602,297.7094727,185.8598633,290.8496094,182.2646484z"/>
<path fill-rule="evenodd" clip-rule="evenodd" fill="#F39C12" d="M149.5288086,5.7944336
	c9.5996094-3.8193359,19.1220703-4.9179688,28.9838867-2.550293c17.7441406,4.2607422,24.6870117,16.1108398,32.8652344,29.3666992
	c1.2446289-1.4208984,8.3886719-7.9077148,9.934082-9.0908203c22.7158203-17.3994141,53.4526367-6.6357422,56.3076172,14.1733398
	c2.590332,18.9038086-16.7514648,33.0322266-36.0161133,28.40625c-2.5615234-0.6147461-11.7119141-2.1694336-21.3022461-10.1967773
	c-9.6298828,13.2529297-8.9785156,12.2216797-21.7797852,34.0385742
	c-5.6723633,9.6640625-17.2001953,29.2270508-23.6083984,37.5327148
	c-12.956543,16.7944336-5.0395508-20.5722656,0.894043-36.7705078c8.2167969-22.425293,18.2216797-36.4111328,29.7294922-51.6245117
	c-8.3271484-11.1098633-14.7910156-22.2421875-29.6000977-25.7973633
	c-11.7260742-2.8149414-22.1118164,0.2412109-32.7270508,5.0961914c-7.9907227,3.65625-18.6977539,10.2954102-25.7651367,15.9477539
	c-1.3369141,1.0693359-2.8129883,2.3813477-4.234375,0.4589844c-1.2646484-1.7158203,0.8525391-3.6611328,2.0083008-4.9301758
	C125.9545898,18.0932617,135.5766602,12.3364258,149.5288086,5.7944336L149.5288086,5.7944336z M227.5625,47.6459961
	l-3.0776367,3.1958008c10.5180664,10.9174805,32.7880859,13.9487305,38.0854492,1.4379883
	c4.8505859-11.2802734-5.7905273-14.6279297-14.6982422-14.3500977
	C240.1669922,38.1708984,233.0996094,42.2333984,227.5625,47.6459961z"/>
<path fill-rule="evenodd" clip-rule="evenodd" fill="#E74C3C" d="M16.0576172,127.5185547
	c-0.6650391-10.309082,1.2324219-19.7055664,6.53125-28.3540039c9.5332031-15.5576172,22.9506836-18.4985352,38.0854492-22.1796875
	c-0.9663086-1.6240234-4.9287109-10.4228516-5.5766602-12.2573242
	c-9.5288086-26.9804688,10.2075195-52.887207,30.8798828-49.1723633
	c18.7792969,3.3769531,26.2382813,26.1386719,15.8862305,43.0297852
	c-1.3764648,2.2480469-5.6831055,10.4692383-16.2797852,17.109375c9.6269531,13.2529297,8.8496094,12.315918,25.6411133,31.2319336
	c7.4389648,8.3808594,22.4819336,25.3920898,28.4018555,34.0527344
	c11.9682617,17.5117188-21.1225586-1.565918-34.6967773-12.2143555
	c-18.7885742-14.7446289-28.9960938-28.581543-39.9106445-44.2265625
	c-13.1376953,4.487793-25.722168,7.1933594-33.6806641,20.1787109C25.0380859,115,24.7338867,125.8208008,26.0732422,137.4160156
	c1.0063477,8.7314453,4.0117188,20.9672852,7.2041016,29.4326172c0.6040039,1.6040039,1.3969727,3.4140625-0.8710938,4.1699219
	c-2.0234375,0.6728516-3.21875-1.9418945-4.0683594-3.4355469
	C20.4702148,153.7402344,17.9672852,142.8085938,16.0576172,127.5185547L16.0576172,127.5185547z M79.9746094,66.2392578
	l2.0898438,3.9135742c13.6323242-6.6298828,23.3974609-26.875,13.1342773-35.7768555
	c-9.2290039-8.0996094-15.7016602,0.9868164-18.1875,9.5429688C74.8583984,51.3212891,76.5375977,59.2998047,79.9746094,66.2392578z
	"/>
<path fill-rule="evenodd" clip-rule="evenodd" fill="#8E44AD" d="M90.5791016,292.0742188
	c-10.0112305-2.5566406-18.3618164-7.2646484-24.9482422-14.9765625
	c-11.8515625-13.8710938-10.5009766-27.5419922-9.3256836-43.0751953c-1.84375,0.4179688-11.4355469,1.4697266-13.3803711,1.5185547
	c-28.6049805,0.7246094-47.1459961-26.0512695-37.2241211-44.5649414
	c9.015625-16.8173828,32.9682617-16.8789063,45.8354492-1.8095703c1.7099609,2.003418,8.199707,8.637207,11.2402344,20.769043
	c15.5791016-5.0610352,14.4467773-4.6123047,37.6264648-14.734375c10.269043-4.4863281,31.0947266-13.5385742,41.1611328-16.4882813
	c20.3544922-5.9736328-8.0151367,19.6040039-22.3374023,29.222168
	c-19.8286133,13.3110352-36.1420898,18.7436523-54.3959961,24.2905273
	c0.2089844,13.8828125-1.1064453,26.6865234,8.7836914,38.2646484c7.8325195,9.1728516,18.0307617,12.8046875,29.4726563,15.1152344
	c8.6142578,1.7421875,21.1791992,2.6640625,30.2192383,2.2431641c1.7114258-0.0800781,3.6762695-0.2734375,3.6948242,2.1171875
	c0.015625,2.1328125-2.8408203,2.4619141-4.5229492,2.8085938
	C116.8818359,295.9765625,105.7109375,294.9804688,90.5791016,292.0742188L90.5791016,292.0742188z M52.0493164,212.3476563
	l4.3662109-0.777832c-2.0908203-15.0131836-18.3261719-30.5556641-29.9658203-23.5463867
	c-10.5546875,6.2744141-3.9130859,15.2348633,3.4555664,20.246582
	C36.28125,212.6025391,44.387207,213.4716797,52.0493164,212.3476563z"/>
</svg>
